<?xml version="1.0" encoding="UTF-8"?>
<svg id="Ebene_2" xmlns="http://www.w3.org/2000/svg" version="1.1" viewBox="0 0 276.5 276.6">
  <!-- Generator: Adobe Illustrator 30.0.0, SVG Export Plug-In . SVG Version: 2.1.1 Build 123)  -->
  <defs>
    <style>
      .st0 {
        fill: #fff;
      }
    </style>
  </defs>
  <g id="Ebene_1_Kopie">
    <path class="st0" d="M138.2,0C101.3,0,66.6,14.4,40.5,40.5,14.4,66.6,0,101.3,0,138.2s.4,1,1,1,1-.4,1-1c0-37.3,30.3-67.6,67.6-67.6s67.6,30.3,67.6,67.6h0c0,47.3-24,90.6-64.2,115.7-1.1.7-1.8,1.9-1.8,3.3,0,1.3.7,2.5,1.9,3.2,19.2,10.8,40.3,16.3,62.6,16.3s38.1-4.1,56-11.8c17.6-7.6,33.9-18.8,47.2-32.4,25.2-25.9,38.5-59.4,37.5-94.2,0-.5-.5-1-1-1h0c-.5,0-1,.4-1,1,0,37.3-30.3,67.6-67.6,67.6s-67.6-30.3-67.6-67.6h0c0-47.3,24-90.5,64.1-115.6,1.1-.7,1.8-2,1.8-3.3,0-1.4-.8-2.5-2-3.2C183.3,5.6,160.8,0,138.2,0h0Z"/>
  </g>
</svg>